<svg width="290" height="179" viewBox="0 0 290 179" fill="none" xmlns="http://www.w3.org/2000/svg">
<rect x="2.5" y="9.5" width="285" height="165" rx="22.5" stroke="#158EFD" stroke-width="5"/>
<path d="M92.6953 101.711V81.5312C92.6953 78.7656 92.1562 76.1641 91.0781 73.7266C90.0469 71.2422 88.6172 69.0859 86.7891 67.2578C84.9609 65.4297 82.8047 64 80.3203 62.9688C77.8828 61.8906 75.2812 61.3516 72.5156 61.3516C69.75 61.3516 67.125 61.8906 64.6406 62.9688C62.2031 64 60.0703 65.4297 58.2422 67.2578C56.4141 69.0859 54.9609 71.2422 53.8828 73.7266C52.8516 76.1641 52.3359 78.7656 52.3359 81.5312V101.711H92.6953ZM112.875 142H92.6953V121.82H52.3359V142H32.2266V81.5312C32.2266 75.9531 33.2812 70.7266 35.3906 65.8516C37.5 60.9297 40.3594 56.6406 43.9688 52.9844C47.625 49.3281 51.8906 46.4453 56.7656 44.3359C61.6875 42.2266 66.9375 41.1719 72.5156 41.1719C78.0938 41.1719 83.3203 42.2266 88.1953 44.3359C93.1172 46.4453 97.4062 49.3281 101.062 52.9844C104.719 56.6406 107.602 60.9297 109.711 65.8516C111.82 70.7266 112.875 75.9531 112.875 81.5312V142Z" fill="#158EFD"/>
<path d="M145.531 142H125.352V41.1719H145.531V91.5859L183.078 41.1719H206L174.148 83.7109L206 142H183.078L160.93 101.219L145.531 121.82V142Z" fill="#717171"/>
<path d="M223.672 142H210.875V91.7969H213.969L218.188 96.6719C220.25 94.7969 222.578 93.3594 225.172 92.3594C227.797 91.3281 230.531 90.8125 233.375 90.8125C236.438 90.8125 239.328 91.4062 242.047 92.5938C244.766 93.75 247.141 95.3594 249.172 97.4219C251.203 99.4531 252.797 101.844 253.953 104.594C255.141 107.312 255.734 110.219 255.734 113.312V142H242.938V113.312C242.938 112 242.688 110.766 242.188 109.609C241.688 108.422 241 107.391 240.125 106.516C239.25 105.641 238.234 104.953 237.078 104.453C235.922 103.953 234.688 103.703 233.375 103.703C232.031 103.703 230.766 103.953 229.578 104.453C228.391 104.953 227.359 105.641 226.484 106.516C225.609 107.391 224.922 108.422 224.422 109.609C223.922 110.766 223.672 112 223.672 113.312V142Z" fill="#717171"/>
<path d="M132.672 142H119.875V91.7969H122.969L127.188 96.6719C129.25 94.7969 131.578 93.3594 134.172 92.3594C136.797 91.3281 139.531 90.8125 142.375 90.8125C145.438 90.8125 148.328 91.4062 151.047 92.5938C153.766 93.75 156.141 95.3594 158.172 97.4219C160.203 99.4531 161.797 101.844 162.953 104.594C164.141 107.312 164.734 110.219 164.734 113.312V142H151.938V113.312C151.938 112 151.688 110.766 151.188 109.609C150.688 108.422 150 107.391 149.125 106.516C148.25 105.641 147.234 104.953 146.078 104.453C144.922 103.953 143.688 103.703 142.375 103.703C141.031 103.703 139.766 103.953 138.578 104.453C137.391 104.953 136.359 105.641 135.484 106.516C134.609 107.391 133.922 108.422 133.422 109.609C132.922 110.766 132.672 112 132.672 113.312V142Z" fill="#158EFD"/>
</svg>
